<?xml version="1.0" encoding="utf-8"?>
<!-- Generator: Adobe Illustrator 24.0.0, SVG Export Plug-In . SVG Version: 6.00 Build 0)  -->
<svg version="1.1" id="Layer_1" xmlns="http://www.w3.org/2000/svg" xmlns:xlink="http://www.w3.org/1999/xlink" x="0px" y="0px"
	 viewBox="0 0 1247.19 378.81" style="enable-background:new 0 0 1247.19 378.81;" xml:space="preserve">
<style type="text/css">
	.st0{fill:#FCB630;}
	.st1{fill:#0E5F7C;}
</style>
<g>
	<polygon class="st0" points="41.89,204.62 90.39,204.62 90.39,286.76 233.22,286.76 233.22,266.55 110.59,266.55 110.59,120.64 
		233.22,120.64 233.22,100.43 231.08,100.43 90.39,100.43 90.39,184.42 62.1,184.42 62.1,69.95 262.53,69.95 262.53,115.71 
		282.73,115.71 282.73,113.56 282.73,49.74 41.89,49.74 	"/>
	<polygon class="st0" points="239.46,203.7 262.53,203.7 262.53,308.86 62.1,308.86 62.1,247.02 41.89,247.02 41.89,249.16 
		41.89,329.07 282.73,329.07 282.73,183.49 239.46,183.49 	"/>
	<polygon class="st0" points="220.52,171.53 220.52,157.9 220.52,140.61 202.65,140.61 126.03,140.61 126.03,186.86 126.03,202.1 
		126.03,202.14 126.03,204.19 201.18,204.19 201.18,229.05 145.95,229.05 145.95,217.47 126.03,217.47 126.03,231.1 126.03,248.39 
		143.9,248.39 220.52,248.39 220.52,202.14 220.52,186.9 220.52,186.86 220.52,184.81 145.36,184.81 145.36,159.95 200.6,159.95 
		200.6,171.53 	"/>
	<g>
		<g>
			<g>
				<path class="st1" d="M333.11,294.01v1.22h-4.75v-1.47c0-4.04-1.54-6.41-5.14-6.41c-3.59,0-5.13,2.37-5.13,6.34
					c0,10.05,15.08,11.01,15.08,23.63c0,6.79-3.27,11.21-10.14,11.21s-10.08-4.42-10.08-11.21v-2.56h4.68v2.82
					c0,4.03,1.67,6.4,5.27,6.4c3.59,0,5.26-2.37,5.26-6.4c0-9.99-15.02-10.95-15.02-23.57c0-6.92,3.21-11.21,9.95-11.21
					C329.9,282.81,333.11,287.23,333.11,294.01z"/>
				<path class="st1" d="M337.16,294.08c0-6.85,3.4-11.27,10.27-11.27c6.93,0,10.33,4.42,10.33,11.27v23.18
					c0,6.79-3.4,11.27-10.33,11.27c-6.87,0-10.27-4.48-10.27-11.27V294.08z M342.11,317.52c0,4.1,1.73,6.47,5.33,6.47
					c3.65,0,5.33-2.37,5.33-6.47v-23.7c0-4.03-1.67-6.47-5.33-6.47c-3.6,0-5.33,2.43-5.33,6.47V317.52z"/>
				<path class="st1" d="M379.08,328.02h-4.81l-7.44-35.67v35.73h-4.37v-44.83h7l7.38,35.8l7.13-35.8h7v44.83h-4.75v-36.05
					L379.08,328.02z"/>
				<path class="st1" d="M401.17,319.05l-1.74,9.03h-4.62l8.6-44.83h7.25l8.6,44.83h-5l-1.74-9.03H401.17z M401.81,314.76h10.01
					l-5.07-25.87L401.81,314.76z"/>
				<path class="st1" d="M423.19,328.08v-44.83h5.01v40.28h12.84v4.55H423.19z"/>
				<path class="st1" d="M449.84,283.25v44.83h-5.01v-44.83H449.84z"/>
				<path class="st1" d="M474.94,283.25c7.06,0,10.01,3.59,10.01,10.25v3.65c0,4.93-1.73,8-5.59,9.22c4.11,1.22,5.65,4.54,5.65,9.35
					v6.98c0,1.98,0.06,3.84,0.9,5.38h-5.07c-0.58-1.28-0.84-2.43-0.84-5.44v-7.04c0-5.06-2.37-6.66-6.54-6.66h-3.53v19.15h-5.01
					v-44.83H474.94z M473.65,304.39c3.98,0,6.36-1.28,6.36-6.15v-4.29c0-4.03-1.48-6.15-5.2-6.15h-4.88v16.58H473.65z"/>
				<path class="st1" d="M506.2,303.11v4.48h-10.98v15.94h13.48v4.55h-18.49v-44.83h18.49v4.55h-13.48v15.3H506.2z"/>
				<path class="st1" d="M532.78,294.01v1.22h-4.75v-1.47c0-4.04-1.54-6.41-5.14-6.41c-3.59,0-5.13,2.37-5.13,6.34
					c0,10.05,15.08,11.01,15.08,23.63c0,6.79-3.27,11.21-10.14,11.21c-6.87,0-10.08-4.42-10.08-11.21v-2.56h4.68v2.82
					c0,4.03,1.67,6.4,5.27,6.4c3.6,0,5.26-2.37,5.26-6.4c0-9.99-15.02-10.95-15.02-23.57c0-6.92,3.21-11.21,9.95-11.21
					C529.58,282.81,532.78,287.23,532.78,294.01z"/>
				<path class="st1" d="M553.2,303.11v4.48h-10.98v15.94h13.48v4.55h-18.49v-44.83h18.49v4.55h-13.48v15.3H553.2z"/>
				<path class="st1" d="M565.4,319.05l-1.74,9.03h-4.62l8.6-44.83h7.25l8.6,44.83h-5l-1.74-9.03H565.4z M566.04,314.76h10.01
					l-5.07-25.87L566.04,314.76z"/>
				<path class="st1" d="M597.44,283.25c7.06,0,10.01,3.59,10.01,10.25v3.65c0,4.93-1.73,8-5.59,9.22c4.11,1.22,5.65,4.54,5.65,9.35
					v6.98c0,1.98,0.06,3.84,0.9,5.38h-5.07c-0.58-1.28-0.84-2.43-0.84-5.44v-7.04c0-5.06-2.37-6.66-6.54-6.66h-3.53v19.15h-5.01
					v-44.83H597.44z M596.15,304.39c3.98,0,6.36-1.28,6.36-6.15v-4.29c0-4.03-1.48-6.15-5.2-6.15h-4.88v16.58H596.15z"/>
				<path class="st1" d="M632.55,294.08v4.03h-4.75v-4.29c0-4.03-1.6-6.47-5.26-6.47c-3.6,0-5.26,2.43-5.26,6.47v23.7
					c0,4.03,1.67,6.47,5.26,6.47c3.66,0,5.26-2.43,5.26-6.47v-5.83h4.75v5.57c0,6.79-3.21,11.27-10.14,11.27
					c-6.87,0-10.08-4.48-10.08-11.27v-23.18c0-6.79,3.21-11.27,10.08-11.27C629.34,282.81,632.55,287.29,632.55,294.08z"/>
				<path class="st1" d="M642.12,307.91v20.17h-5.01v-44.83h5.01v20.17h11.04v-20.17h5.01v44.83h-5.01v-20.17H642.12z"/>
				<path class="st1" d="M678.33,319.05l-1.74,9.03h-4.62l8.6-44.83h7.25l8.6,44.83h-5l-1.74-9.03H678.33z M678.97,314.76h10.01
					l-5.07-25.87L678.97,314.76z"/>
				<path class="st1" d="M704.79,328.08h-4.5v-44.83h6.36l10.4,32.4v-32.4h4.43v44.83h-5.2l-11.49-36.25V328.08z"/>
				<path class="st1" d="M737.14,283.25c7,0,10.2,4.23,10.2,11.14V317c0,6.85-3.21,11.08-10.2,11.08h-10.53v-44.83H737.14z
					 M737.08,323.53c3.6,0,5.33-2.24,5.33-6.34v-23.06c0-4.1-1.73-6.34-5.39-6.34h-5.39v35.73H737.08z"/>
				<path class="st1" d="M777.97,303.11v4.48h-10.98v15.94h13.48v4.55h-18.49v-44.83h18.49v4.55h-13.48v15.3H777.97z"/>
				<path class="st1" d="M795.63,283.25c7,0,10.2,4.23,10.2,11.14V317c0,6.85-3.21,11.08-10.2,11.08H785.1v-44.83H795.63z
					 M795.57,323.53c3.6,0,5.33-2.24,5.33-6.34v-23.06c0-4.1-1.73-6.34-5.39-6.34h-5.39v35.73H795.57z"/>
				<path class="st1" d="M815.28,317.52c0,4.03,1.61,6.47,5.27,6.47c3.59,0,5.2-2.43,5.2-6.47v-34.26h4.68v34.01
					c0,6.79-3.14,11.34-10.08,11.34c-6.87,0-10.01-4.55-10.01-11.34v-34.01h4.94V317.52z"/>
				<path class="st1" d="M855.2,294.08v4.03h-4.75v-4.29c0-4.03-1.6-6.47-5.26-6.47c-3.6,0-5.26,2.43-5.26,6.47v23.7
					c0,4.03,1.67,6.47,5.26,6.47c3.66,0,5.26-2.43,5.26-6.47v-5.83h4.75v5.57c0,6.79-3.21,11.27-10.14,11.27
					c-6.87,0-10.08-4.48-10.08-11.27v-23.18c0-6.79,3.21-11.27,10.08-11.27C851.99,282.81,855.2,287.29,855.2,294.08z"/>
				<path class="st1" d="M864.84,319.05l-1.74,9.03h-4.62l8.6-44.83h7.25l8.6,44.83h-5l-1.74-9.03H864.84z M865.48,314.76h10.01
					l-5.07-25.87L865.48,314.76z"/>
				<path class="st1" d="M890.91,328.08V287.8h-8.28v-4.55h21.5v4.55h-8.27v40.28H890.91z"/>
				<path class="st1" d="M912.54,283.25v44.83h-5.01v-44.83H912.54z"/>
				<path class="st1" d="M917.3,294.08c0-6.85,3.4-11.27,10.27-11.27c6.93,0,10.33,4.42,10.33,11.27v23.18
					c0,6.79-3.4,11.27-10.33,11.27c-6.87,0-10.27-4.48-10.27-11.27V294.08z M922.24,317.52c0,4.1,1.73,6.47,5.33,6.47
					c3.65,0,5.33-2.37,5.33-6.47v-23.7c0-4.03-1.67-6.47-5.33-6.47c-3.6,0-5.33,2.43-5.33,6.47V317.52z"/>
				<path class="st1" d="M947.08,328.08h-4.5v-44.83h6.36l10.4,32.4v-32.4h4.43v44.83h-5.2l-11.49-36.25V328.08z"/>
				<path class="st1" d="M988.88,283.25c7.06,0,10.01,3.59,10.01,10.25v3.65c0,4.93-1.73,8-5.59,9.22c4.11,1.22,5.65,4.54,5.65,9.35
					v6.98c0,1.98,0.06,3.84,0.9,5.38h-5.07c-0.58-1.28-0.84-2.43-0.84-5.44v-7.04c0-5.06-2.37-6.66-6.54-6.66h-3.53v19.15h-5.01
					v-44.83H988.88z M987.6,304.39c3.98,0,6.35-1.28,6.35-6.15v-4.29c0-4.03-1.48-6.15-5.2-6.15h-4.88v16.58H987.6z"/>
				<path class="st1" d="M1020.14,303.11v4.48h-10.98v15.94h13.48v4.55h-18.49v-44.83h18.49v4.55h-13.48v15.3H1020.14z"/>
				<path class="st1" d="M1037.09,283.25c7.06,0,10.08,4.16,10.08,10.95v5.38c0,7.11-3.34,10.82-10.46,10.82h-4.43v17.67h-5.01
					v-44.83H1037.09z M1036.7,305.92c3.73,0,5.52-1.73,5.52-6.02v-5.96c0-4.1-1.47-6.15-5.13-6.15h-4.81v18.12H1036.7z"/>
				<path class="st1" d="M1050.71,294.08c0-6.85,3.4-11.27,10.27-11.27c6.93,0,10.33,4.42,10.33,11.27v23.18
					c0,6.79-3.4,11.27-10.33,11.27c-6.87,0-10.27-4.48-10.27-11.27V294.08z M1055.65,317.52c0,4.1,1.73,6.47,5.33,6.47
					c3.65,0,5.33-2.37,5.33-6.47v-23.7c0-4.03-1.67-6.47-5.33-6.47c-3.6,0-5.33,2.43-5.33,6.47V317.52z"/>
				<path class="st1" d="M1095.52,294.01v1.22h-4.75v-1.47c0-4.04-1.54-6.41-5.14-6.41c-3.59,0-5.13,2.37-5.13,6.34
					c0,10.05,15.08,11.01,15.08,23.63c0,6.79-3.27,11.21-10.14,11.21c-6.87,0-10.08-4.42-10.08-11.21v-2.56h4.68v2.82
					c0,4.03,1.67,6.4,5.27,6.4c3.6,0,5.26-2.37,5.26-6.4c0-9.99-15.02-10.95-15.02-23.57c0-6.92,3.21-11.21,9.95-11.21
					C1092.31,282.81,1095.52,287.23,1095.52,294.01z"/>
				<path class="st1" d="M1104.96,283.25v44.83h-5.01v-44.83H1104.96z"/>
				<path class="st1" d="M1116.58,328.08V287.8h-8.28v-4.55h21.5v4.55h-8.27v40.28H1116.58z"/>
				<path class="st1" d="M1132.82,294.08c0-6.85,3.4-11.27,10.27-11.27c6.93,0,10.33,4.42,10.33,11.27v23.18
					c0,6.79-3.4,11.27-10.33,11.27c-6.87,0-10.27-4.48-10.27-11.27V294.08z M1137.77,317.52c0,4.1,1.73,6.47,5.33,6.47
					c3.65,0,5.33-2.37,5.33-6.47v-23.7c0-4.03-1.67-6.47-5.33-6.47c-3.6,0-5.33,2.43-5.33,6.47V317.52z"/>
				<path class="st1" d="M1168.19,283.25c7.06,0,10.01,3.59,10.01,10.25v3.65c0,4.93-1.73,8-5.59,9.22
					c4.11,1.22,5.65,4.54,5.65,9.35v6.98c0,1.98,0.06,3.84,0.9,5.38h-5.07c-0.58-1.28-0.84-2.43-0.84-5.44v-7.04
					c0-5.06-2.37-6.66-6.54-6.66h-3.53v19.15h-5.01v-44.83H1168.19z M1166.91,304.39c3.98,0,6.36-1.28,6.36-6.15v-4.29
					c0-4.03-1.48-6.15-5.2-6.15h-4.88v16.58H1166.91z"/>
				<path class="st1" d="M1190.79,312.01l-9.51-28.75h5.2l7,22.03l7.06-22.03h4.75l-9.56,28.75v16.07h-4.94V312.01z"/>
			</g>
		</g>
		<g>
			<path class="st1" d="M476.64,148.23H355.5c-0.9,0-1.74,0.31-2.49,0.9c-0.75,0.61-1.12,1.21-1.12,1.82v16.3
				c0,1.81,1.21,2.72,3.62,2.72h95.56c3.16,0,6.29,0.45,9.4,1.35c3.09,0.91,5.85,2.42,8.26,4.53c2.42,2.11,4.34,4.83,5.78,8.15
				c1.44,3.32,2.15,7.47,2.15,12.45v40.53c0,2.11-0.64,4.34-1.92,6.68c-1.28,2.34-2.88,4.49-4.76,6.46c-1.89,1.96-4,3.59-6.34,4.87
				c-2.35,1.28-4.66,1.92-6.92,1.92H312.03v-32.6h120.9c2.42,0,3.63-0.91,3.63-2.72v-16.3c0-0.61-0.38-1.21-1.14-1.82
				c-0.75-0.6-1.58-0.9-2.49-0.9h-97.35c-3.03-0.15-5.97-0.75-8.84-1.81c-2.86-1.06-5.4-2.61-7.57-4.65
				c-2.19-2.04-3.93-4.71-5.21-8.04c-1.28-3.32-1.92-7.32-1.92-12v-40.3c0-2.11,0.64-4.34,1.92-6.68c1.28-2.33,2.95-4.53,4.98-6.56
				c2.04-2.04,4.21-3.7,6.56-4.98c2.33-1.28,4.57-1.92,6.68-1.92h144.47V148.23z"/>
			<path class="st1" d="M499.62,129.44c1.72-3.17,4.07-5.77,7.02-7.81c2.93-2.04,6.22-3.55,9.84-4.53c3.63-0.98,7.4-1.47,11.33-1.47
				h103.25c3.62,0,7.25,0.53,10.86,1.58c3.63,1.06,6.91,2.68,9.85,4.87c2.95,2.19,5.35,4.87,7.25,8.04
				c1.89,3.17,2.83,6.8,2.83,10.87v90.57c0,4.08-0.94,7.7-2.83,10.87c-1.89,3.17-4.3,5.85-7.25,8.04c-2.95,2.19-6.22,3.82-9.85,4.87
				c-3.62,1.06-7.25,1.59-10.86,1.59H527.81c-3.93,0-7.7-0.49-11.33-1.47c-3.62-0.98-6.91-2.49-9.84-4.53
				c-2.95-2.04-5.3-4.64-7.02-7.81c-1.74-3.17-2.61-7.02-2.61-11.55v-90.57C497.02,136.46,497.88,132.61,499.62,129.44z
				 M621.78,148.23h-84.91v76.08h84.91V148.23z"/>
			<path class="st1" d="M682.24,256.92V174.5h115.71c2.41,0,3.62-0.9,3.62-2.72v-20.83c0-0.61-0.37-1.21-1.12-1.82
				c-0.77-0.6-1.59-0.9-2.49-0.9H682.24v-32.6h139.48c2.11,0,4.33,0.64,6.68,1.92c2.33,1.28,4.48,2.91,6.45,4.87
				c1.96,1.96,3.59,4.11,4.87,6.45c1.28,2.34,1.92,4.57,1.92,6.68v44.83c0,4.83-1.1,8.98-3.27,12.45c-2.19,3.47-5.07,6.31-8.61,8.49
				c-3.55,2.19-7.55,3.77-12,4.76s-8.94,1.47-13.47,1.47l54.12,49.36h-55.7l-55.26-49.36h-25.13v49.36H682.24z"/>
			<path class="st1" d="M862.03,115.63h146.73v32.6H901.88v22.19h56.15v32.61h-56.15v21.28h106.88v32.6H862.03V115.63z"/>
			<path class="st1" d="M1029.14,256.92V174.5h115.71c2.41,0,3.62-0.9,3.62-2.72v-20.83c0-0.61-0.37-1.21-1.12-1.82
				c-0.77-0.6-1.59-0.9-2.49-0.9h-115.71v-32.6h139.48c2.11,0,4.33,0.64,6.68,1.92c2.33,1.28,4.48,2.91,6.45,4.87
				c1.96,1.96,3.59,4.11,4.87,6.45c1.28,2.34,1.92,4.57,1.92,6.68v44.83c0,4.83-1.1,8.98-3.27,12.45c-2.19,3.47-5.07,6.31-8.61,8.49
				c-3.55,2.19-7.55,3.77-12,4.76s-8.94,1.47-13.47,1.47l54.12,49.36h-55.7l-55.26-49.36h-25.13v49.36H1029.14z"/>
		</g>
	</g>
</g>
</svg>
